HIERARCHY
ROOT Hips
{
	OFFSET 0.00000 0.00000 0.00000
	CHANNELS 6 Xposition Yposition Zposition Yrotation Zrotation Xrotation 
	JOINT Lumbar
	{
		OFFSET 0 0 0
		CHANNELS 3 Zrotation Xrotation Yrotation
		JOINT Neck
		{
			OFFSET 0.00 0.2701 0.00
			CHANNELS 3 Zrotation Xrotation Yrotation
			End Site
			{
				OFFSET 0.00 0.1379 0.00
			}
		}
		JOINT RightShoulder
		{
			OFFSET 0.0119 0.2289 0.1181
			CHANNELS 3 Zrotation Xrotation Yrotation
			JOINT RightElbow
			{
				OFFSET 0.00 -0.1475 0.00
				CHANNELS 2 Zrotation Yrotation
				JOINT RightWrist
				{
					OFFSET 0.00 -0.1605 0.00
					CHANNELS 2 Zrotation Xrotation
					End Site
					{
						OFFSET 0.0040 -0.1068 0.0006
					}
				}
			}
		}
		JOINT LeftShoulder
		{
			OFFSET 0.0119 0.2289 -0.1181
			CHANNELS 3 Zrotation Xrotation Yrotation
			JOINT LeftElbow
			{
				OFFSET 0.00 -0.1475 0.00
				CHANNELS 2 Zrotation Yrotation
				JOINT LeftWrist
				{
					OFFSET 0.00 -0.1605 0.00
					CHANNELS 2 Zrotation Xrotation
					End Site
					{
						OFFSET 0.0040 -0.1068 -0.0006
					}
				}
			}
		}
	}
	JOINT RightHip
	{
		OFFSET 0.0316 -0.0424 0.0458
		CHANNELS 3 Zrotation Xrotation Yrotation
		JOINT RightKnee
		{
			OFFSET 0.00 -0.2438 0.00
			CHANNELS 1 Zrotation
			JOINT RightAnkle
			{
				OFFSET 0.00 -0.2449 0.00
				CHANNELS 3 Zrotation Xrotation Yrotation
				End Site
				{
					OFFSET 0.1237 -0.0542 0.0051
				}
			}
		}
	}
	JOINT LeftHip
	{
		OFFSET 0.0316 -0.0424 -0.0458
		CHANNELS 3 Zrotation Xrotation Yrotation
		JOINT LeftKnee
		{
			OFFSET 0.00 -0.2438 0.00
			CHANNELS 1 Zrotation
			JOINT LeftAnkle
			{
				OFFSET 0.00 -0.2449 0.00
				CHANNELS 3 Zrotation Xrotation Yrotation
				End Site
				{
					OFFSET 0.1237 -0.0542 -0.0051
				}
			}
		}
	}
}
MOTION
Frames: 28
Frame Time: 0.02
0.00079 0.0003 0.0016 -172.77839 -30.82852 2.11356 43.68517 0.33198 -8.55109 -8.19054 3.03078 -0.3753 -19.41339 -6.76831 -7.23956 29.43515 96.96481 8.4171 1.19699 -23.12471 1.12613 47.37064 27.51263 -179.20081 34.15731 -14.58012 32.61033 -2.30592 -2.34597 -19.90461 -6.5277 -4.43235 -2.90971 37.25952 2.52897 3.56301 -24.05187 -6.61606 2.59359 1.97352
0.0006 0.00031 0.00179 -172.41071 -30.80534 2.13311 43.73297 0.3566 -8.40726 -8.1658 3.12049 -0.37573 -19.61615 -6.9401 -7.50377 29.20929 97.02667 8.4829 1.18531 -23.33708 1.76198 43.11656 28.0748 -171.97033 32.38974 -13.24346 32.53944 -2.33285 -2.50453 -19.91237 -6.52329 -4.42833 -2.9128 37.25868 2.50614 3.47522 -24.0464 -6.61973 2.57642 1.96397
0.00041 0.00032 0.00198 -172.04404 -30.78219 2.15259 43.78065 0.3811 -8.26364 -8.14122 3.20999 -0.37616 -19.81855 -7.11139 -7.76713 28.98427 97.08872 8.54864 1.17375 -23.54872 2.39524 38.87705 28.63577 -164.76747 30.62933 -11.91169 32.4687 -2.35967 -2.66283 -19.92011 -6.51889 -4.42431 -2.91587 37.2578 2.48347 3.38778 -24.04095 -6.62339 2.55927 1.95444
0.00023 0.00034 0.00217 -171.67747 -30.75907 2.17207 43.8283 0.40564 -8.1202 -8.11655 3.29944 -0.37659 -20.02072 -7.28269 -8.03045 28.75908 97.1501 8.61416 1.16207 -23.76043 3.02896 34.63645 29.19635 -157.56053 28.86761 -10.57933 32.39802 -2.38651 -2.82094 -19.92784 -6.51449 -4.42029 -2.91894 37.25696 2.46073 3.30028 -24.03549 -6.62705 2.54215 1.94492
4e-05 0.00035 0.00237 -171.30995 -30.73593 2.19163 43.87608 0.43032 -7.97667 -8.09173 3.38905 -0.37702 -20.22319 -7.45439 -8.29485 28.53315 97.21214 8.67997 1.1504 -23.97286 3.66568 30.38037 29.7578 -150.32287 27.09772 -9.24161 32.32721 -2.41345 -2.97924 -19.9356 -6.51009 -4.41628 -2.92204 37.25618 2.43777 3.21235 -24.03001 -6.63073 2.52504 1.9354
-0.00015 0.00036 0.00255 -170.94512 -30.71276 2.21094 43.92354 0.45441 -7.8329 -8.0677 3.4783 -0.37745 -20.42544 -7.62477 -8.55613 28.31012 97.27476 8.74569 1.13917 -24.18283 4.29172 26.17569 30.31765 -143.19293 25.35711 -7.92234 32.2566 -2.43999 -3.13751 -19.94329 -6.50567 -4.41222 -2.92506 37.25508 2.41572 3.12595 -24.02464 -6.63435 2.50782 1.92584
-0.00034 0.00038 0.00275 -170.57525 -30.68969 2.23071 43.97155 0.47971 -7.68968 -8.04197 3.56825 -0.37787 -20.62783 -7.79785 -8.82282 28.08116 97.33353 8.81081 1.12666 -24.39754 4.93808 21.87349 30.88046 -135.85748 23.5606 -6.56791 32.18571 -2.46734 -3.29569 -19.95111 -6.50132 -4.40827 -2.92824 37.25466 2.39188 3.03666 -24.01905 -6.6381 2.4908 1.91636
-0.00053 0.00039 0.00294 -170.21007 -30.66648 2.25008 44.01916 0.5038 -7.54614 -8.01805 3.65742 -0.3783 -20.83025 -7.96802 -9.08559 27.85828 97.40063 8.87781 1.11604 -24.60787 5.56659 17.65892 31.43985 -128.70539 21.81365 -5.245 32.11497 -2.49391 -3.45392 -19.95882 -6.49687 -4.40422 -2.93127 37.25351 2.36969 2.94984 -24.01367 -6.6417 2.47365 1.90683
-0.00072 0.0004 0.00312 -169.85029 -30.64327 2.26889 44.06586 0.52676 -7.40134 -7.99537 3.74621 -0.37874 -21.03218 -8.13639 -9.33944 27.64035 97.45902 8.94186 1.10491 -24.81295 6.1699 13.55905 31.99814 -121.79978 20.13472 -3.9638 32.0448 -2.51966 -3.61243 -19.96636 -6.4924 -4.40004 -2.9341 37.25188 2.3495 2.86679 -24.00849 -6.64521 2.45613 1.89713
-0.0009 0.00042 0.00336 -169.45841 -30.62058 2.29071 44.11652 0.55729 -7.26118 -7.96265 3.83892 -0.37914 -21.23535 -8.32038 -9.63218 27.38646 97.51075 9.00711 1.08828 -25.04856 6.90803 8.82194 32.57207 -113.54312 18.0868 -2.45216 31.97252 -2.55055 -3.76997 -19.97476 -6.48835 -4.39659 -2.93803 37.25426 2.31778 2.76433 -24.00201 -6.64953 2.4401 1.88809
-0.0011 0.00043 0.00346 -169.13495 -30.59648 2.30633 44.15963 0.57117 -7.11292 -7.95295 3.92223 -0.37961 -21.43687 -8.46803 -9.85079 27.21322 97.61276 9.07989 1.08863 -25.21953 7.36822 5.41495 33.10691 -108.09398 16.80301 -1.42059 31.90398 -2.5703 -3.92911 -19.98143 -6.48324 -4.39162 -2.93966 37.24741 2.31037 2.70137 -23.99837 -6.65196 2.42134 1.87786
-0.00135 0.00044 0.0032 -168.99564 -30.57055 2.30347 44.17568 0.54433 -6.92823 -7.993 3.98869 -0.38029 -21.62638 -8.54388 -9.79617 27.22317 97.54339 9.08769 1.08961 -25.21403 7.00381 5.81439 33.58479 -110.78705 17.75864 -1.77081 31.85106 -2.56119 -4.09546 -19.98242 -6.47652 -4.38243 -2.93481 37.22052 2.37059 2.75936 -24.00165 -6.65061 2.39166 1.86259
-0.00162 0.00044 0.0028 -168.926 -30.5426 2.2946 44.18552 0.49983 -6.73806 -8.05929 4.04405 -0.38104 -21.81572 -8.57876 -9.67793 27.32033 97.57236 9.11665 1.1146 -25.144 6.37115 7.52261 34.01478 -116.22462 19.45766 -2.59203 31.80056 -2.54031 -4.26205 -19.98183 -6.46856 -4.37185 -2.92772 37.18296 2.45509 2.85445 -24.0079 -6.64713 2.35991 1.84646
-0.00189 0.00044 0.00244 -168.82641 -30.51448 2.28951 44.20214 0.46018 -6.55963 -8.12154 4.09865 -0.38175 -22.00993 -8.61329 -9.63716 27.40359 97.77054 9.19477 1.16063 -25.10219 5.90251 8.52698 34.43293 -120.11179 20.72015 -3.15454 31.7459 -2.52405 -4.42783 -19.98261 -6.46021 -4.36178 -2.92166 37.14738 2.52784 2.92466 -24.01342 -6.64369 2.33126 1.83183
-0.00211 0.00046 0.00215 -168.71841 -30.49184 2.28021 44.20128 0.43395 -6.34206 -8.14798 4.17775 -0.38247 -22.18357 -8.72498 -9.40012 27.38193 97.10508 9.03416 1.07827 -25.06264 5.25818 9.98553 34.98996 -125.25725 22.3904 -3.90295 31.7056 -2.51195 -4.60017 -19.98072 -6.45556 -4.3517 -2.9153 37.12562 2.60349 3.02978 -24.01649 -6.64409 2.29331 1.81242
-0.00245 0.00044 0.00169 -168.64611 -30.45622 2.27797 44.23629 0.37551 -6.20481 -8.25844 4.20317 -0.38321 -22.40046 -8.66981 -9.5457 27.59504 98.21263 9.36404 1.26092 -25.00594 4.91287 10.81947 35.24999 -128.4663 23.4006 -4.3803 31.63416 -2.48698 -4.75438 -19.98391 -6.44331 -4.34195 -2.90937 37.07036 2.67905 3.06977 -24.02518 -6.6361 2.27449 1.8029
-0.00303 0.00031 0.00088 -168.64136 -30.39474 2.29887 44.364 0.23333 -6.28967 -8.56643 4.08328 -0.38398 -22.7322 -8.1333 -10.85935 28.47082 104.61101 11.1422 2.23878 -24.8938 5.48829 9.51001 34.67104 -125.35216 22.28955 -3.95306 31.49204 -2.44183 -4.89952 -20.00252 -6.40667 -4.32754 -2.90198 36.94431 2.74714 2.93228 -24.05069 -6.60436 2.30663 1.81952
-0.00374 0.00014 -0.0001 -168.67302 -30.31868 2.32657 44.52938 0.05932 -6.45548 -8.96297 3.90982 -0.38478 -23.1078 -7.43599 -12.54271 29.57171 112.71009 13.39338 3.4695 -24.7712 6.36811 7.54647 33.8009 -120.24867 20.50901 -3.24408 31.31577 -2.38202 -5.02049 -20.02613 -6.36295 -4.31433 -2.89554 36.78164 2.81486 2.7268 -24.08171 -6.56445 2.35844 1.84631
-0.00444 -1e-05 -0.00104 -168.69675 -30.24288 2.34984 44.68287 -0.10088 -6.58525 -9.33776 3.76065 -0.38557 -23.46702 -6.83237 -13.99347 30.5479 119.7582 15.36474 4.53903 -24.66899 7.08992 5.94427 33.08374 -116.25707 19.11269 -2.69091 31.14445 -2.32044 -5.12342 -20.04682 -6.32508 -4.30477 -2.89097 36.6228 2.88314 2.54367 -24.10846 -6.52896 2.40295 1.86943
-0.00494 -0.00015 -0.00186 -168.68525 -30.19318 2.37893 44.81464 -0.2595 -6.7128 -9.6367 3.61093 -0.38635 -23.81345 -6.1403 -15.71321 31.62763 127.99174 17.6162 5.80493 -24.49821 7.88709 4.11 32.27639 -111.49143 17.4093 -2.03757 31.01693 -2.29311 -5.34176 -20.07016 -6.27665 -4.27855 -2.87725 36.51644 2.94922 2.39385 -24.14143 -6.49035 2.44089 1.88876
-0.00588 -0.00034 -0.00295 -168.75647 -30.08657 2.39715 44.99998 -0.42802 -6.86288 -10.11267 3.45025 -0.38717 -24.19414 -5.59479 -16.96313 32.53656 134.14878 19.38935 6.72136 -24.469 8.60096 2.59573 31.59005 -107.82047 16.17109 -1.51903 30.79118 -2.19228 -5.3229 -20.08922 -6.2478 -4.28594 -2.88205 36.29378 3.02121 2.16315 -24.16439 -6.4564 2.49667 1.91811
-0.00803 -0.00065 -0.00467 -169.03245 -29.82007 2.3873 45.32855 -0.62158 -7.06737 -11.06725 3.2684 -0.38809 -24.68218 -5.49198 -16.81661 32.9843 134.25571 19.78946 6.61473 -24.82902 9.03037 2.03953 31.29617 -107.72621 16.42681 -1.44621 30.29455 -1.88184 -4.57766 -20.09504 -6.28133 -4.39783 -2.94466 35.74978 3.09473 1.6811 -24.14794 -6.43704 2.60177 1.97534
-0.01061 -0.00103 -0.00666 -169.39228 -29.49889 2.36557 45.70793 -0.82256 -7.28957 -12.1927 3.0782 -0.38907 -25.19848 -5.54149 -16.19107 33.2413 132.20644 19.6831 6.14857 -25.33211 9.36339 1.83566 31.13754 -108.77594 17.16148 -1.51556 29.70298 -1.49973 -3.60847 -20.09651 -6.33363 -4.54133 -3.02462 35.0948 3.17691 1.12781 -24.12591 -6.42283 2.72327 2.04183
-0.01299 -0.00139 -0.00854 -169.72375 -29.20575 2.34702 46.06238 -1.01688 -7.4958 -13.23477 2.89449 -0.39001 -25.68685 -5.52384 -15.78496 33.54016 131.06381 19.76283 5.84217 -25.77391 9.72833 1.52211 30.92475 -109.24394 17.64323 -1.5144 29.15851 -1.15744 -2.79312 -20.10005 -6.37293 -4.66241 -3.09208 34.49285 3.26471 0.6367 -24.10973 -6.40627 2.83405 2.10229
-0.0154 -0.00169 -0.01035 -170.01761 -28.89493 2.33835 46.42999 -1.22756 -7.73817 -14.31217 2.69747 -0.39093 -26.24175 -5.49667 -15.36543 34.02958 130.24305 20.03211 5.55279 -26.20313 10.15251 0.98052 30.66781 -109.90521 18.25106 -1.52854 28.59097 -0.78477 -1.75916 -20.10309 -6.43061 -4.81729 -3.17895 33.86622 3.312 0.01884 -24.06844 -6.38892 2.95921 2.1707
-0.01783 -0.00212 -0.01237 -170.40642 -28.61277 2.30584 46.77662 -1.40378 -7.90858 -15.34531 2.52697 -0.39202 -26.66257 -5.52152 -14.87907 34.0821 128.27641 19.79655 5.14823 -26.6882 10.42818 0.99731 30.54264 -110.46135 18.7185 -1.54829 28.0559 -0.45762 -1.12513 -20.10642 -6.45486 -4.90956 -3.22967 33.28071 3.4459 -0.35287 -24.09226 -6.37524 3.05821 2.22473
-0.02038 -0.00288 -0.01491 -171.06043 -28.38313 2.21377 47.09616 -1.49778 -7.87368 -16.30039 2.43119 -0.39252 -26.72032 -5.70911 -14.10834 32.90028 123.13647 18.14134 4.43186 -27.33007 10.30205 2.5434 30.71493 -110.45177 18.68492 -1.54852 27.5772 -0.28211 -1.67216 -20.10836 -6.3796 -4.81875 -3.17475 32.70367 3.81409 -0.01201 -24.17677 -6.36472 3.07954 2.23578
-0.0229 -0.00376 -0.01763 -171.80209 -28.19136 2.09769 47.38417 -1.55401 -7.76553 -17.18854 2.36279 -0.39338 -26.63951 -5.93644 -13.31753 31.29663 116.99289 16.01694 3.62329 -28.01565 10.03147 4.62741 31.02171 -110.30606 18.49638 -1.55089 27.14457 -0.1536 -2.62522 -20.11124 -6.27062 -4.66437 -3.08317 32.19738 4.26879 0.57609 -24.35029 -6.3589 3.07419 2.23219
